<?xml version="1.0" standalone="no"?>
<!DOCTYPE svg PUBLIC "-//W3C//DTD SVG 20010904//EN"
 "http://www.w3.org/TR/2001/REC-SVG-20010904/DTD/svg10.dtd">
<svg version="1.0" xmlns="http://www.w3.org/2000/svg"
 width="512.000000pt" height="512.000000pt" viewBox="0 0 512.000000 512.000000"
 preserveAspectRatio="xMidYMid meet">

<g transform="translate(0.000000,512.000000) scale(0.100000,-0.100000)"
fill="#000000" stroke="none">
<path d="M925 5110 c-198 -40 -358 -200 -401 -399 -10 -48 -14 -148 -14 -370
l0 -305 -78 -80 c-226 -233 -367 -548 -417 -931 -13 -99 -15 -315 -15 -1473 0
-1302 1 -1359 19 -1398 26 -57 72 -87 140 -92 51 -3 64 1 151 46 l94 50 143
-74 c99 -51 154 -74 178 -74 24 0 79 23 178 74 l142 74 142 -74 c99 -51 153
-74 178 -74 25 0 79 23 177 74 l143 74 142 -74 c99 -51 153 -74 178 -74 25 0
79 23 178 74 l143 74 94 -50 c87 -45 100 -49 151 -46 67 5 111 33 139 88 19
38 20 61 20 585 l0 545 508 0 c455 0 516 2 597 19 370 76 691 406 845 868 21
65 46 159 55 208 22 118 28 132 63 139 43 10 146 81 192 133 51 58 107 171
120 242 14 78 13 1753 -1 1823 -39 189 -208 358 -397 397 -63 13 -3722 14
-3787 1z m3793 -182 c99 -40 171 -112 210 -210 15 -39 17 -120 20 -873 3 -877
1 -928 -42 -1014 -30 -57 -102 -125 -164 -154 -46 -22 -55 -22 -678 -25 l-632
-3 -6 23 c-7 30 -8 176 0 206 l6 22 564 0 c454 0 571 3 597 14 42 17 83 66 97
114 8 25 10 273 8 792 l-3 755 -23 37 c-13 20 -40 47 -60 60 l-37 23 -1761 0
-1760 0 -37 -25 c-69 -47 -81 -84 -85 -262 l-4 -157 -71 -21 c-39 -12 -93 -33
-120 -46 l-48 -25 3 273 3 273 26 50 c53 99 149 169 254 185 28 4 871 7 1875
6 1696 -1 1828 -2 1868 -18z m-198 -800 l0 -392 -45 64 c-155 220 -371 379
-600 442 l-80 23 -1342 3 -1343 3 0 124 0 125 1705 0 1705 0 0 -392z m-1382
-37 c-1 -4 -30 -31 -63 -58 -220 -182 -405 -519 -474 -860 -36 -178 -41 -281
-41 -838 l0 -545 -99 0 c-83 0 -102 -3 -124 -20 -33 -26 -41 -63 -22 -101 21
-40 49 -49 156 -49 l89 0 0 -695 0 -696 -96 51 c-133 69 -143 68 -319 -24
l-140 -73 -143 75 c-180 94 -182 94 -367 -6 l-130 -70 -80 43 c-162 87 -203
105 -240 105 -28 0 -76 -20 -179 -74 l-141 -74 -130 70 c-173 94 -190 96 -316
32 -51 -27 -97 -50 -102 -52 -4 -2 -7 309 -7 692 l0 696 54 0 c71 0 116 34
116 86 0 57 -36 84 -110 84 l-60 0 0 530 c0 309 4 571 11 628 57 521 321 955
668 1096 57 23 128 40 206 49 67 8 2086 6 2083 -2z m696 -18 c239 -59 459
-258 601 -543 76 -151 85 -187 85 -330 l0 -130 -195 0 -195 0 -36 72 c-45 90
-135 185 -217 229 -59 32 -67 34 -162 34 -90 0 -106 -3 -160 -29 -72 -36 -169
-129 -212 -206 -17 -30 -43 -89 -57 -130 -115 -344 8 -737 271 -867 66 -33 82
-37 151 -36 90 0 160 23 235 78 55 41 139 150 163 213 l17 42 228 0 c126 0
229 -3 229 -7 -1 -30 -44 -194 -70 -268 -114 -321 -305 -556 -545 -671 -296
-142 -602 -73 -855 192 -448 469 -507 1386 -126 1958 220 330 535 478 850 399z
m-1063 -2179 c74 -139 201 -295 322 -396 l58 -48 -210 0 -211 0 0 257 c0 141
2 254 5 252 2 -3 19 -32 36 -65z"/>
<path d="M536 1759 c-34 -40 -33 -74 3 -110 l29 -29 157 0 157 0 29 29 c31 31
36 59 17 94 -23 43 -36 46 -205 47 l-161 0 -26 -31z"/>
<path d="M1135 1765 c-35 -34 -33 -78 4 -116 l29 -29 146 0 c79 0 156 4 171
10 34 13 59 69 46 104 -20 50 -42 56 -214 56 -154 0 -158 -1 -182 -25z"/>
<path d="M1735 1765 c-15 -15 -25 -36 -25 -54 0 -79 29 -91 210 -91 181 0 210
12 210 91 0 18 -10 39 -25 54 -24 24 -27 25 -185 25 -158 0 -161 -1 -185 -25z"/>
</g>
</svg>
