<?xml version="1.0" standalone="no"?>
<!DOCTYPE svg PUBLIC "-//W3C//DTD SVG 20010904//EN"
 "http://www.w3.org/TR/2001/REC-SVG-20010904/DTD/svg10.dtd">
<svg version="1.0" xmlns="http://www.w3.org/2000/svg"
 width="512.000000pt" height="512.000000pt" viewBox="0 0 512.000000 512.000000"
 preserveAspectRatio="xMidYMid meet">

<g transform="translate(0.000000,512.000000) scale(0.100000,-0.100000)"
fill="#000080" stroke="none">
<path d="M265 4966 c-36 -16 -69 -51 -87 -91 -17 -39 -25 -1964 -8 -2054 12
-67 33 -98 86 -128 38 -22 49 -23 295 -23 l256 0 63 -72 63 -73 -234 -5 c-248
-5 -260 -8 -298 -56 -19 -24 -21 -40 -21 -165 l0 -138 35 -35 c27 -28 45 -36
88 -41 l54 -7 7 -53 c9 -82 53 -222 97 -308 61 -121 114 -193 213 -293 93 -92
165 -145 268 -196 32 -16 58 -33 57 -36 0 -4 -53 -144 -117 -312 l-118 -305
-99 -5 c-154 -8 -185 -40 -185 -194 l0 -85 -306 -3 -306 -3 -25 -29 c-27 -31
-25 -66 4 -98 15 -17 148 -18 2524 -18 l2508 0 20 26 c36 46 22 93 -33 114
-18 7 -432 10 -1262 10 l-1234 0 0 86 c0 153 -31 186 -185 194 l-99 5 -118
305 c-64 168 -117 308 -117 312 -1 4 26 21 59 37 137 68 274 182 371 310 98
129 209 400 209 511 0 26 3 28 55 35 45 5 62 13 90 41 l35 35 0 138 c0 125 -2
141 -21 165 -41 53 -59 56 -304 56 -124 0 -225 3 -225 6 0 3 28 37 62 75 l62
69 253 0 c233 0 257 2 293 20 50 25 78 66 90 131 6 30 10 301 10 660 l0 609
91 0 c101 0 135 15 164 70 23 44 22 448 -1 496 -26 56 -68 74 -166 74 l-84 0
-11 76 c-11 80 -28 112 -77 148 -27 21 -31 21 -1369 23 -1103 2 -1347 0 -1372
-11z m2665 -981 l0 -845 -140 0 c-140 0 -140 0 -136 23 53 246 41 501 -36 737
-49 152 -152 336 -250 444 -36 41 -49 49 -77 48 -82 -2 -95 -72 -28 -154 202
-249 295 -559 267 -883 -29 -334 -172 -610 -418 -808 l-34 -27 -453 0 -454 0
-58 48 c-281 235 -429 616 -392 1011 56 590 495 1017 989 961 83 -9 187 -38
242 -66 64 -33 132 -4 130 55 -1 42 -16 60 -77 87 -372 164 -798 70 -1097
-242 -284 -297 -406 -772 -312 -1211 4 -23 4 -23 -136 -23 l-140 0 0 845 0
845 1305 0 1305 0 0 -845z m280 425 l0 -170 -60 0 -60 0 0 170 0 170 60 0 60
0 0 -170z m-2534 -1505 c19 -44 34 -81 34 -82 0 -2 -87 -2 -192 -1 l-193 3 -3
83 -3 82 162 -2 162 -3 33 -80z m2252 3 l-3 -83 -192 -3 c-106 -1 -193 0 -193
2 0 2 9 26 21 53 11 26 27 63 34 81 l14 32 161 0 161 0 -3 -82z m-208 -603 l0
-65 -1095 0 -1095 0 0 65 0 65 1095 0 1095 0 0 -65z m-185 -272 c-12 -85 -67
-233 -116 -315 -142 -235 -351 -383 -619 -438 -228 -47 -460 -3 -667 126 -103
64 -234 197 -297 302 -51 85 -110 243 -121 325 l-7 47 917 0 917 0 -7 -47z
m-1017 -914 c100 -12 183 -8 353 17 l35 6 104 -268 c57 -148 105 -276 108
-286 4 -16 -3 -18 -50 -18 -41 0 -60 -5 -76 -20 -30 -28 -30 -82 0 -110 20
-19 34 -20 225 -20 l203 0 0 -65 0 -65 -795 0 -795 0 0 65 0 65 443 0 c432 0
444 1 465 20 30 28 30 82 0 110 -21 19 -34 20 -315 20 -161 0 -293 3 -293 8 0
4 48 132 107 285 l106 279 36 -5 c20 -3 83 -11 139 -18z"/>
<path d="M400 4752 c-35 -35 -44 -86 -38 -220 6 -154 29 -172 213 -172 184 0
207 18 213 172 6 134 -3 185 -38 220 l-28 28 -147 0 -147 0 -28 -28z m230
-182 l0 -60 -55 0 -55 0 0 60 0 60 55 0 55 0 0 -60z"/>
<path d="M956 3998 c-53 -48 -25 -128 44 -128 67 0 96 88 44 129 -34 27 -57
26 -88 -1z"/>
<path d="M2240 4013 c-51 -19 -68 -85 -30 -123 45 -45 120 -11 120 53 0 47
-49 85 -90 70z"/>
<path d="M970 3057 c-35 -18 -50 -53 -38 -88 27 -78 138 -58 138 24 0 54 -53
88 -100 64z"/>
<path d="M2240 3063 c-51 -19 -68 -85 -30 -123 45 -45 120 -11 120 53 0 47
-49 85 -90 70z"/>
<path d="M3971 4883 c-15 -16 -40 -60 -55 -100 -34 -88 -70 -123 -160 -153
-97 -32 -133 -90 -102 -163 15 -38 40 -54 124 -82 68 -22 115 -69 137 -137 26
-80 42 -106 75 -123 71 -37 136 -2 166 88 37 114 63 141 187 187 42 16 64 31
78 54 46 76 10 138 -106 181 -90 33 -118 61 -151 152 -33 90 -67 123 -126 123
-30 0 -46 -7 -67 -27z m138 -296 c20 -21 51 -46 69 -56 l33 -17 -51 -33 c-29
-19 -65 -54 -83 -82 -18 -27 -34 -48 -37 -48 -3 0 -18 21 -35 47 -16 26 -51
61 -77 77 -26 17 -47 33 -47 37 -1 4 12 14 29 23 36 19 97 80 117 119 l15 30
15 -30 c9 -16 32 -46 52 -67z"/>
<path d="M3846 3689 c-38 -30 -56 -71 -56 -129 l0 -50 -141 0 c-155 0 -181 -8
-213 -60 -14 -25 -16 -73 -16 -387 0 -337 1 -360 20 -390 25 -42 68 -63 130
-63 l50 0 0 -316 0 -317 93 -94 c50 -52 105 -102 121 -110 47 -24 85 -10 151
57 33 33 64 60 70 60 6 0 37 -27 70 -60 64 -64 105 -81 146 -60 13 7 50 37 81
68 l57 55 65 -61 c74 -69 115 -84 162 -59 41 22 191 177 203 210 7 18 11 143
11 328 l0 299 51 0 c63 0 110 26 133 74 14 29 16 83 16 381 0 375 -1 380 -56
424 -24 19 -40 21 -170 21 l-144 0 0 38 c0 63 -18 110 -54 137 l-33 25 -360 0
c-350 0 -361 -1 -387 -21z m684 -239 l0 -110 -28 0 c-40 0 -72 -33 -72 -75 0
-51 31 -75 98 -75 90 0 152 56 152 139 l0 31 110 0 110 0 0 -300 0 -300 -665
0 -665 0 0 300 0 300 110 0 110 0 0 -37 c0 -21 9 -52 20 -70 33 -54 62 -63
218 -63 125 0 140 2 160 20 14 14 22 33 22 55 0 22 -8 41 -22 55 -19 18 -35
20 -135 20 l-113 0 0 110 0 110 295 0 295 0 0 -110z m170 -923 c0 -73 -3 -86
-21 -103 -12 -10 -25 -28 -29 -39 -10 -26 7 -73 31 -86 17 -9 19 -22 19 -135
l0 -125 -51 -55 -52 -54 -67 64 c-101 95 -141 94 -240 -8 l-54 -56 -61 60
c-98 97 -144 97 -240 0 l-59 -60 -53 52 -53 52 0 126 0 126 30 11 c59 22 59
97 0 131 -29 17 -30 18 -30 100 l0 82 465 0 465 0 0 -83z"/>
<path d="M3924 2417 c-20 -18 -27 -32 -26 -58 1 -48 31 -69 97 -69 66 0 96 21
97 69 2 48 -38 81 -97 81 -32 0 -52 -7 -71 -23z"/>
<path d="M4176 2419 c-19 -15 -26 -30 -26 -55 0 -52 28 -74 94 -74 67 0 97 21
98 69 2 71 -103 110 -166 60z"/>
<path d="M4426 2419 c-19 -15 -26 -30 -26 -55 0 -52 28 -74 94 -74 67 0 97 21
98 69 2 71 -103 110 -166 60z"/>
<path d="M3160 1953 c-29 -15 -40 -31 -63 -88 -35 -88 -56 -110 -129 -137
-145 -52 -145 -174 0 -226 73 -27 94 -50 129 -137 24 -59 34 -73 66 -88 31
-16 43 -17 69 -8 47 16 65 37 84 95 23 70 56 112 101 127 102 33 135 63 135
125 0 53 -24 79 -101 109 -85 34 -103 52 -133 134 -34 94 -91 128 -158 94z
m88 -278 c10 -11 30 -29 46 -41 l28 -20 -34 -24 c-19 -13 -45 -38 -58 -56
l-22 -34 -29 39 c-15 22 -41 47 -58 57 l-29 17 38 28 c21 15 46 42 56 59 17
28 20 29 32 13 7 -10 21 -27 30 -38z"/>
<path d="M301 1303 c-12 -10 -35 -52 -52 -93 -16 -41 -37 -82 -46 -92 -8 -9
-46 -29 -84 -43 -90 -35 -123 -72 -116 -129 7 -51 36 -77 117 -107 72 -26 101
-57 131 -140 55 -149 178 -147 229 5 25 77 55 106 143 142 77 30 102 58 102
115 0 51 -32 82 -116 115 -80 30 -98 50 -134 144 -16 42 -36 75 -50 84 -32 21
-97 20 -124 -1z m143 -309 l47 -40 -39 -27 c-22 -14 -50 -42 -62 -62 l-23 -37
-23 29 c-13 15 -23 31 -24 35 0 3 -20 19 -45 36 l-44 29 37 24 c20 13 50 42
67 65 l30 40 16 -26 c9 -14 38 -44 63 -66z"/>
</g>
</svg>
